<svg width="301" height="32" viewBox="0 0 301 32" fill="none" xmlns="http://www.w3.org/2000/svg">
                    <path opacity="0.6" d="M13.4801 5.33333C13.3734 5.73333 13.3334 6.17333 13.3334 6.66667V10.6667H6.66675V8C6.66675 6.53333 7.86675 5.33333 9.33341 5.33333H13.4801Z" fill="#413659"/>
                    <path d="M13.3334 25.3333V10.6667H6.66675C4.00008 10.6667 2.66675 12 2.66675 14.6667V25.3333C2.66675 28 4.00008 29.3333 6.66675 29.3333H17.3334C14.6667 29.3333 13.3334 28 13.3334 25.3333ZM9.00008 22.6667C9.00008 23.2133 8.54675 23.6667 8.00008 23.6667C7.45341 23.6667 7.00008 23.2133 7.00008 22.6667V17.3333C7.00008 16.7867 7.45341 16.3333 8.00008 16.3333C8.54675 16.3333 9.00008 16.7867 9.00008 17.3333V22.6667Z" fill="#413659"/>
                    <path opacity="0.4" d="M18.6666 29.3333H17.3333C14.6666 29.3333 13.3333 28 13.3333 25.3333V6.66667C13.3333 4 14.6666 2.66667 17.3333 2.66667H25.3333C27.9999 2.66667 29.3333 4 29.3333 6.66667V25.3333C29.3333 28 27.9999 29.3333 25.3333 29.3333H23.9999" fill="#413659"/>
                    <path d="M24.0001 24V29.3333H18.6667V24C18.6667 23.2667 19.2667 22.6667 20.0001 22.6667H22.6667C23.4001 22.6667 24.0001 23.2667 24.0001 24Z" fill="#413659"/>
                    <path d="M18.6667 18.3333C18.1201 18.3333 17.6667 17.88 17.6667 17.3333V10.6667C17.6667 10.12 18.1201 9.66667 18.6667 9.66667C19.2134 9.66667 19.6667 10.12 19.6667 10.6667V17.3333C19.6667 17.88 19.2134 18.3333 18.6667 18.3333Z" fill="#413659"/>
                    <path d="M24 18.3333C23.4533 18.3333 23 17.88 23 17.3333V10.6667C23 10.12 23.4533 9.66667 24 9.66667C24.5467 9.66667 25 10.12 25 10.6667V17.3333C25 17.88 24.5467 18.3333 24 18.3333Z" fill="#413659"/>
                    <path d="M49.328 23V11.08H50.768L55.232 17.432H54.496L58.928 11.08H60.368V23H58.784V13.064L59.344 13.24L54.912 19.48H54.784L50.4 13.24L50.896 13.064V23H49.328ZM65.6175 23.192C65.0522 23.192 64.5508 23.0907 64.1135 22.888C63.6868 22.6747 63.3508 22.3867 63.1055 22.024C62.8602 21.6507 62.7375 21.224 62.7375 20.744C62.7375 20.2853 62.8335 19.8747 63.0255 19.512C63.2282 19.1387 63.5375 18.824 63.9535 18.568C64.3802 18.312 64.9135 18.1307 65.5535 18.024L68.7535 17.496V18.744L65.8895 19.224C65.3348 19.32 64.9295 19.496 64.6735 19.752C64.4282 20.008 64.3055 20.3227 64.3055 20.696C64.3055 21.048 64.4442 21.3413 64.7215 21.576C65.0095 21.8107 65.3668 21.928 65.7935 21.928C66.3375 21.928 66.8068 21.816 67.2015 21.592C67.6068 21.3573 67.9215 21.0427 68.1455 20.648C68.3802 20.2533 68.4975 19.816 68.4975 19.336V17.144C68.4975 16.6747 68.3215 16.296 67.9695 16.008C67.6282 15.7093 67.1748 15.56 66.6095 15.56C66.1188 15.56 65.6815 15.688 65.2975 15.944C64.9242 16.1893 64.6468 16.52 64.4655 16.936L63.1695 16.264C63.3295 15.8693 63.5855 15.5173 63.9375 15.208C64.2895 14.888 64.7002 14.6373 65.1695 14.456C65.6388 14.2747 66.1295 14.184 66.6415 14.184C67.3028 14.184 67.8842 14.312 68.3855 14.568C68.8868 14.8133 69.2762 15.16 69.5535 15.608C69.8415 16.0453 69.9855 16.5573 69.9855 17.144V23H68.5295V21.368L68.8015 21.464C68.6202 21.8053 68.3748 22.104 68.0655 22.36C67.7562 22.616 67.3935 22.8187 66.9775 22.968C66.5615 23.1173 66.1082 23.192 65.6175 23.192ZM72.5426 23V10.888H74.0306V19.192L73.4226 19.048L77.9986 14.376H79.9026L76.5906 17.848L80.1266 23H78.3666L75.1346 18.328L76.0626 18.28L73.5506 20.904L74.0306 19.816V23H72.5426ZM85.5263 23.192C84.6943 23.192 83.9529 22.9947 83.3023 22.6C82.6516 22.2053 82.1396 21.6667 81.7663 20.984C81.3929 20.2907 81.2063 19.5173 81.2063 18.664C81.2063 17.8 81.3876 17.032 81.7503 16.36C82.1236 15.688 82.6249 15.16 83.2543 14.776C83.8943 14.3813 84.6089 14.184 85.3983 14.184C86.0383 14.184 86.6036 14.3013 87.0943 14.536C87.5956 14.76 88.0169 15.0693 88.3583 15.464C88.7103 15.848 88.9769 16.2907 89.1583 16.792C89.3503 17.2827 89.4462 17.7947 89.4462 18.328C89.4462 18.4453 89.4356 18.5787 89.4143 18.728C89.4036 18.8667 89.3876 19 89.3663 19.128H82.2943V17.848H88.5023L87.7983 18.424C87.8943 17.8693 87.8409 17.3733 87.6383 16.936C87.4356 16.4987 87.1369 16.152 86.7423 15.896C86.3476 15.64 85.8996 15.512 85.3983 15.512C84.8969 15.512 84.4383 15.64 84.0223 15.896C83.6063 16.152 83.2809 16.52 83.0463 17C82.8223 17.4693 82.7316 18.0293 82.7743 18.68C82.7316 19.3093 82.8276 19.864 83.0623 20.344C83.3076 20.8133 83.6489 21.1813 84.0863 21.448C84.5343 21.704 85.0196 21.832 85.5423 21.832C86.1183 21.832 86.6036 21.6987 86.9983 21.432C87.3929 21.1653 87.7129 20.824 87.9583 20.408L89.2063 21.048C89.0356 21.4427 88.7689 21.8053 88.4062 22.136C88.0543 22.456 87.6329 22.712 87.1423 22.904C86.6623 23.096 86.1236 23.192 85.5263 23.192ZM95.116 26.52C94.924 26.52 94.732 26.504 94.54 26.472C94.348 26.4507 94.1667 26.4027 93.996 26.328V25C94.1133 25.0107 94.2573 25.032 94.428 25.064C94.6093 25.096 94.7853 25.112 94.956 25.112C95.4573 25.112 95.836 25 96.092 24.776C96.3587 24.552 96.6093 24.1733 96.844 23.64L97.388 22.344L97.356 23.64L93.676 14.376H95.292L98.156 21.736H97.676L100.524 14.376H102.172L98.284 24.024C98.1027 24.4827 97.868 24.904 97.58 25.288C97.3027 25.672 96.9613 25.9707 96.556 26.184C96.1507 26.408 95.6707 26.52 95.116 26.52ZM107.686 23.192C106.854 23.192 106.102 23 105.43 22.616C104.758 22.2213 104.224 21.6827 103.83 21C103.435 20.3173 103.238 19.544 103.238 18.68C103.238 17.816 103.43 17.048 103.814 16.376C104.208 15.704 104.742 15.1707 105.414 14.776C106.086 14.3813 106.843 14.184 107.686 14.184C108.518 14.184 109.27 14.3813 109.942 14.776C110.614 15.16 111.142 15.688 111.526 16.36C111.92 17.032 112.118 17.8053 112.118 18.68C112.118 19.5547 111.915 20.3333 111.51 21.016C111.104 21.688 110.566 22.2213 109.894 22.616C109.232 23 108.496 23.192 107.686 23.192ZM107.686 21.752C108.219 21.752 108.699 21.6187 109.126 21.352C109.563 21.0853 109.904 20.7173 110.15 20.248C110.406 19.7787 110.534 19.256 110.534 18.68C110.534 18.0933 110.406 17.576 110.15 17.128C109.904 16.6693 109.563 16.3067 109.126 16.04C108.699 15.7627 108.219 15.624 107.686 15.624C107.142 15.624 106.651 15.7627 106.214 16.04C105.787 16.3067 105.446 16.6693 105.19 17.128C104.934 17.576 104.806 18.0933 104.806 18.68C104.806 19.256 104.934 19.7787 105.19 20.248C105.446 20.7173 105.787 21.0853 106.214 21.352C106.651 21.6187 107.142 21.752 107.686 21.752ZM117.364 23.192C116.746 23.192 116.186 23.048 115.684 22.76C115.194 22.472 114.81 22.072 114.532 21.56C114.266 21.0373 114.132 20.44 114.132 19.768V14.376H115.62V19.608C115.62 20.0347 115.706 20.408 115.876 20.728C116.058 21.048 116.303 21.2987 116.612 21.48C116.932 21.6613 117.295 21.752 117.7 21.752C118.106 21.752 118.463 21.6613 118.772 21.48C119.092 21.2987 119.338 21.0373 119.508 20.696C119.69 20.3547 119.78 19.9493 119.78 19.48V14.376H121.284V23H119.828V21.32L120.068 21.464C119.866 22.008 119.519 22.4347 119.028 22.744C118.548 23.0427 117.994 23.192 117.364 23.192ZM123.84 23V14.376H125.296V15.96L125.136 15.736C125.338 15.2453 125.648 14.8827 126.064 14.648C126.48 14.4027 126.986 14.28 127.584 14.28H128.112V15.688H127.36C126.752 15.688 126.261 15.88 125.888 16.264C125.514 16.6373 125.328 17.1707 125.328 17.864V23H123.84ZM132.699 23V14.376H134.155V15.96L133.995 15.736C134.198 15.2453 134.507 14.8827 134.923 14.648C135.339 14.4027 135.846 14.28 136.443 14.28H136.971V15.688H136.219C135.611 15.688 135.12 15.88 134.747 16.264C134.374 16.6373 134.187 17.1707 134.187 17.864V23H132.699ZM142.511 23.192C141.679 23.192 140.937 22.9947 140.287 22.6C139.636 22.2053 139.124 21.6667 138.751 20.984C138.377 20.2907 138.191 19.5173 138.191 18.664C138.191 17.8 138.372 17.032 138.735 16.36C139.108 15.688 139.609 15.16 140.239 14.776C140.879 14.3813 141.593 14.184 142.383 14.184C143.023 14.184 143.588 14.3013 144.079 14.536C144.58 14.76 145.001 15.0693 145.343 15.464C145.695 15.848 145.961 16.2907 146.143 16.792C146.335 17.2827 146.431 17.7947 146.431 18.328C146.431 18.4453 146.42 18.5787 146.399 18.728C146.388 18.8667 146.372 19 146.351 19.128H139.279V17.848H145.487L144.783 18.424C144.879 17.8693 144.825 17.3733 144.623 16.936C144.42 16.4987 144.121 16.152 143.727 15.896C143.332 15.64 142.884 15.512 142.383 15.512C141.881 15.512 141.423 15.64 141.007 15.896C140.591 16.152 140.265 16.52 140.031 17C139.807 17.4693 139.716 18.0293 139.759 18.68C139.716 19.3093 139.812 19.864 140.047 20.344C140.292 20.8133 140.633 21.1813 141.071 21.448C141.519 21.704 142.004 21.832 142.527 21.832C143.103 21.832 143.588 21.6987 143.983 21.432C144.377 21.1653 144.697 20.824 144.943 20.408L146.191 21.048C146.02 21.4427 145.753 21.8053 145.391 22.136C145.039 22.456 144.617 22.712 144.127 22.904C143.647 23.096 143.108 23.192 142.511 23.192ZM152.621 23.192C151.778 23.192 151.026 22.9947 150.365 22.6C149.714 22.2053 149.202 21.6667 148.829 20.984C148.455 20.3013 148.269 19.5333 148.269 18.68C148.269 17.816 148.455 17.048 148.829 16.376C149.202 15.704 149.714 15.1707 150.365 14.776C151.026 14.3813 151.778 14.184 152.621 14.184C153.186 14.184 153.714 14.2853 154.205 14.488C154.695 14.6907 155.127 14.9627 155.501 15.304C155.874 15.6453 156.146 16.0453 156.317 16.504L154.989 17.144C154.786 16.696 154.477 16.3333 154.061 16.056C153.645 15.768 153.165 15.624 152.621 15.624C152.098 15.624 151.623 15.7573 151.197 16.024C150.781 16.2907 150.45 16.6533 150.205 17.112C149.959 17.5707 149.837 18.0987 149.837 18.696C149.837 19.272 149.959 19.7947 150.205 20.264C150.45 20.7227 150.781 21.0853 151.197 21.352C151.623 21.6187 152.098 21.752 152.621 21.752C153.165 21.752 153.645 21.6133 154.061 21.336C154.477 21.048 154.786 20.6693 154.989 20.2L156.317 20.872C156.146 21.32 155.874 21.72 155.501 22.072C155.127 22.4133 154.695 22.6853 154.205 22.888C153.714 23.0907 153.186 23.192 152.621 23.192ZM158.511 23V14.376H159.967V15.96L159.807 15.736C160.01 15.2453 160.319 14.8827 160.735 14.648C161.151 14.4027 161.658 14.28 162.255 14.28H162.783V15.688H162.031C161.423 15.688 160.933 15.88 160.559 16.264C160.186 16.6373 159.999 17.1707 159.999 17.864V23H158.511ZM167.411 23.192C166.792 23.192 166.232 23.048 165.731 22.76C165.24 22.472 164.856 22.072 164.579 21.56C164.312 21.0373 164.179 20.44 164.179 19.768V14.376H165.667V19.608C165.667 20.0347 165.752 20.408 165.923 20.728C166.104 21.048 166.35 21.2987 166.659 21.48C166.979 21.6613 167.342 21.752 167.747 21.752C168.152 21.752 168.51 21.6613 168.819 21.48C169.139 21.2987 169.384 21.0373 169.555 20.696C169.736 20.3547 169.827 19.9493 169.827 19.48V14.376H171.331V23H169.875V21.32L170.115 21.464C169.912 22.008 169.566 22.4347 169.075 22.744C168.595 23.0427 168.04 23.192 167.411 23.192ZM173.886 23V14.376H175.374V23H173.886ZM173.886 13V11.08H175.374V13H173.886ZM181.437 23.096C180.595 23.096 179.944 22.856 179.485 22.376C179.037 21.896 178.813 21.2187 178.813 20.344V15.8H177.245V14.376H177.565C177.949 14.376 178.253 14.2587 178.477 14.024C178.701 13.7893 178.813 13.48 178.813 13.096V12.392H180.301V14.376H182.237V15.8H180.301V20.296C180.301 20.584 180.344 20.8347 180.429 21.048C180.525 21.2613 180.68 21.432 180.893 21.56C181.107 21.6773 181.389 21.736 181.741 21.736C181.816 21.736 181.907 21.7307 182.013 21.72C182.131 21.7093 182.237 21.6987 182.333 21.688V23C182.195 23.032 182.04 23.0533 181.869 23.064C181.699 23.0853 181.555 23.096 181.437 23.096ZM184.527 23V14.376H185.983V16.136L185.775 15.864C185.988 15.32 186.33 14.904 186.799 14.616C187.268 14.328 187.796 14.184 188.383 14.184C189.055 14.184 189.658 14.3707 190.191 14.744C190.735 15.1173 191.108 15.608 191.311 16.216L190.895 16.232C191.119 15.56 191.498 15.0533 192.031 14.712C192.564 14.36 193.156 14.184 193.807 14.184C194.404 14.184 194.943 14.3227 195.423 14.6C195.914 14.8773 196.303 15.2613 196.591 15.752C196.879 16.2427 197.023 16.7973 197.023 17.416V23H195.519V17.896C195.519 17.416 195.434 17.0107 195.263 16.68C195.092 16.3493 194.858 16.0933 194.559 15.912C194.271 15.72 193.93 15.624 193.535 15.624C193.151 15.624 192.804 15.72 192.495 15.912C192.196 16.0933 191.956 16.3547 191.775 16.696C191.604 17.0267 191.519 17.4267 191.519 17.896V23H190.015V17.896C190.015 17.416 189.93 17.0107 189.759 16.68C189.588 16.3493 189.354 16.0933 189.055 15.912C188.767 15.72 188.426 15.624 188.031 15.624C187.647 15.624 187.3 15.72 186.991 15.912C186.692 16.0933 186.452 16.3547 186.271 16.696C186.1 17.0267 186.015 17.4267 186.015 17.896V23H184.527ZM203.354 23.192C202.522 23.192 201.781 22.9947 201.13 22.6C200.48 22.2053 199.968 21.6667 199.594 20.984C199.221 20.2907 199.034 19.5173 199.034 18.664C199.034 17.8 199.216 17.032 199.578 16.36C199.952 15.688 200.453 15.16 201.082 14.776C201.722 14.3813 202.437 14.184 203.226 14.184C203.866 14.184 204.432 14.3013 204.922 14.536C205.424 14.76 205.845 15.0693 206.186 15.464C206.538 15.848 206.805 16.2907 206.986 16.792C207.178 17.2827 207.274 17.7947 207.274 18.328C207.274 18.4453 207.264 18.5787 207.242 18.728C207.232 18.8667 207.216 19 207.194 19.128H200.122V17.848H206.33L205.626 18.424C205.722 17.8693 205.669 17.3733 205.466 16.936C205.264 16.4987 204.965 16.152 204.57 15.896C204.176 15.64 203.728 15.512 203.226 15.512C202.725 15.512 202.266 15.64 201.85 15.896C201.434 16.152 201.109 16.52 200.874 17C200.65 17.4693 200.56 18.0293 200.602 18.68C200.56 19.3093 200.656 19.864 200.89 20.344C201.136 20.8133 201.477 21.1813 201.914 21.448C202.362 21.704 202.848 21.832 203.37 21.832C203.946 21.832 204.432 21.6987 204.826 21.432C205.221 21.1653 205.541 20.824 205.786 20.408L207.034 21.048C206.864 21.4427 206.597 21.8053 206.234 22.136C205.882 22.456 205.461 22.712 204.97 22.904C204.49 23.096 203.952 23.192 203.354 23.192ZM209.465 23V14.376H210.921V16.056L210.681 15.912C210.894 15.368 211.235 14.9467 211.705 14.648C212.185 14.3387 212.745 14.184 213.385 14.184C214.003 14.184 214.553 14.3227 215.033 14.6C215.523 14.8773 215.907 15.2613 216.185 15.752C216.473 16.2427 216.617 16.7973 216.617 17.416V23H215.113V17.896C215.113 17.416 215.027 17.0107 214.857 16.68C214.686 16.3493 214.441 16.0933 214.121 15.912C213.811 15.72 213.454 15.624 213.049 15.624C212.643 15.624 212.281 15.72 211.961 15.912C211.651 16.0933 211.406 16.3547 211.225 16.696C211.043 17.0267 210.953 17.4267 210.953 17.896V23H209.465ZM222.5 23.096C221.657 23.096 221.006 22.856 220.548 22.376C220.1 21.896 219.876 21.2187 219.876 20.344V15.8H218.308V14.376H218.628C219.012 14.376 219.316 14.2587 219.54 14.024C219.764 13.7893 219.876 13.48 219.876 13.096V12.392H221.364V14.376H223.3V15.8H221.364V20.296C221.364 20.584 221.406 20.8347 221.492 21.048C221.588 21.2613 221.742 21.432 221.956 21.56C222.169 21.6773 222.452 21.736 222.804 21.736C222.878 21.736 222.969 21.7307 223.076 21.72C223.193 21.7093 223.3 21.6987 223.396 21.688V23C223.257 23.032 223.102 23.0533 222.932 23.064C222.761 23.0853 222.617 23.096 222.5 23.096ZM231.693 23.192C230.829 23.192 230.077 22.9787 229.437 22.552C228.797 22.1253 228.344 21.5493 228.077 20.824L229.261 20.248C229.506 20.76 229.842 21.1653 230.269 21.464C230.696 21.7627 231.17 21.912 231.693 21.912C232.162 21.912 232.552 21.8 232.861 21.576C233.17 21.352 233.325 21.0587 233.325 20.696C233.325 20.44 233.25 20.2373 233.101 20.088C232.962 19.928 232.792 19.8053 232.589 19.72C232.386 19.624 232.2 19.5547 232.029 19.512L230.733 19.144C229.954 18.92 229.384 18.6 229.021 18.184C228.669 17.768 228.493 17.2827 228.493 16.728C228.493 16.216 228.621 15.7733 228.877 15.4C229.144 15.016 229.501 14.7173 229.949 14.504C230.408 14.2907 230.92 14.184 231.485 14.184C232.242 14.184 232.92 14.376 233.517 14.76C234.125 15.144 234.557 15.6827 234.813 16.376L233.597 16.936C233.405 16.488 233.117 16.136 232.733 15.88C232.349 15.6133 231.917 15.48 231.437 15.48C231 15.48 230.653 15.592 230.397 15.816C230.141 16.0293 230.013 16.3013 230.013 16.632C230.013 16.8773 230.077 17.08 230.205 17.24C230.333 17.3893 230.488 17.5067 230.669 17.592C230.85 17.6667 231.026 17.7307 231.197 17.784L232.605 18.2C233.309 18.4027 233.853 18.7173 234.237 19.144C234.632 19.5707 234.829 20.0827 234.829 20.68C234.829 21.16 234.696 21.592 234.429 21.976C234.162 22.36 233.794 22.6587 233.325 22.872C232.856 23.0853 232.312 23.192 231.693 23.192ZM240.995 23.192C240.163 23.192 239.422 22.9947 238.771 22.6C238.12 22.2053 237.608 21.6667 237.235 20.984C236.862 20.2907 236.675 19.5173 236.675 18.664C236.675 17.8 236.856 17.032 237.219 16.36C237.592 15.688 238.094 15.16 238.723 14.776C239.363 14.3813 240.078 14.184 240.867 14.184C241.507 14.184 242.072 14.3013 242.563 14.536C243.064 14.76 243.486 15.0693 243.827 15.464C244.179 15.848 244.446 16.2907 244.627 16.792C244.819 17.2827 244.915 17.7947 244.915 18.328C244.915 18.4453 244.904 18.5787 244.883 18.728C244.872 18.8667 244.856 19 244.835 19.128H237.763V17.848H243.971L243.267 18.424C243.363 17.8693 243.31 17.3733 243.107 16.936C242.904 16.4987 242.606 16.152 242.211 15.896C241.816 15.64 241.368 15.512 240.867 15.512C240.366 15.512 239.907 15.64 239.491 15.896C239.075 16.152 238.75 16.52 238.515 17C238.291 17.4693 238.2 18.0293 238.243 18.68C238.2 19.3093 238.296 19.864 238.531 20.344C238.776 20.8133 239.118 21.1813 239.555 21.448C240.003 21.704 240.488 21.832 241.011 21.832C241.587 21.832 242.072 21.6987 242.467 21.432C242.862 21.1653 243.182 20.824 243.427 20.408L244.675 21.048C244.504 21.4427 244.238 21.8053 243.875 22.136C243.523 22.456 243.102 22.712 242.611 22.904C242.131 23.096 241.592 23.192 240.995 23.192ZM249.524 23.192C248.958 23.192 248.457 23.0907 248.02 22.888C247.593 22.6747 247.257 22.3867 247.012 22.024C246.766 21.6507 246.644 21.224 246.644 20.744C246.644 20.2853 246.74 19.8747 246.932 19.512C247.134 19.1387 247.444 18.824 247.86 18.568C248.286 18.312 248.82 18.1307 249.46 18.024L252.66 17.496V18.744L249.796 19.224C249.241 19.32 248.836 19.496 248.58 19.752C248.334 20.008 248.212 20.3227 248.212 20.696C248.212 21.048 248.35 21.3413 248.628 21.576C248.916 21.8107 249.273 21.928 249.7 21.928C250.244 21.928 250.713 21.816 251.108 21.592C251.513 21.3573 251.828 21.0427 252.052 20.648C252.286 20.2533 252.404 19.816 252.404 19.336V17.144C252.404 16.6747 252.228 16.296 251.876 16.008C251.534 15.7093 251.081 15.56 250.516 15.56C250.025 15.56 249.588 15.688 249.204 15.944C248.83 16.1893 248.553 16.52 248.372 16.936L247.076 16.264C247.236 15.8693 247.492 15.5173 247.844 15.208C248.196 14.888 248.606 14.6373 249.076 14.456C249.545 14.2747 250.036 14.184 250.548 14.184C251.209 14.184 251.79 14.312 252.292 14.568C252.793 14.8133 253.182 15.16 253.46 15.608C253.748 16.0453 253.892 16.5573 253.892 17.144V23H252.436V21.368L252.708 21.464C252.526 21.8053 252.281 22.104 251.972 22.36C251.662 22.616 251.3 22.8187 250.884 22.968C250.468 23.1173 250.014 23.192 249.524 23.192ZM256.449 23V14.376H257.905V16.136L257.697 15.864C257.91 15.32 258.252 14.904 258.721 14.616C259.19 14.328 259.718 14.184 260.305 14.184C260.977 14.184 261.58 14.3707 262.113 14.744C262.657 15.1173 263.03 15.608 263.233 16.216L262.817 16.232C263.041 15.56 263.42 15.0533 263.953 14.712C264.486 14.36 265.078 14.184 265.729 14.184C266.326 14.184 266.865 14.3227 267.345 14.6C267.836 14.8773 268.225 15.2613 268.513 15.752C268.801 16.2427 268.945 16.7973 268.945 17.416V23H267.441V17.896C267.441 17.416 267.356 17.0107 267.185 16.68C267.014 16.3493 266.78 16.0933 266.481 15.912C266.193 15.72 265.852 15.624 265.457 15.624C265.073 15.624 264.726 15.72 264.417 15.912C264.118 16.0933 263.878 16.3547 263.697 16.696C263.526 17.0267 263.441 17.4267 263.441 17.896V23H261.937V17.896C261.937 17.416 261.852 17.0107 261.681 16.68C261.51 16.3493 261.276 16.0933 260.977 15.912C260.689 15.72 260.348 15.624 259.953 15.624C259.569 15.624 259.222 15.72 258.913 15.912C258.614 16.0933 258.374 16.3547 258.193 16.696C258.022 17.0267 257.937 17.4267 257.937 17.896V23H256.449ZM271.308 23V10.888H272.796V23H271.308ZM279.323 23.192C278.491 23.192 277.75 22.9947 277.099 22.6C276.448 22.2053 275.936 21.6667 275.563 20.984C275.19 20.2907 275.003 19.5173 275.003 18.664C275.003 17.8 275.184 17.032 275.547 16.36C275.92 15.688 276.422 15.16 277.051 14.776C277.691 14.3813 278.406 14.184 279.195 14.184C279.835 14.184 280.4 14.3013 280.891 14.536C281.392 14.76 281.814 15.0693 282.155 15.464C282.507 15.848 282.774 16.2907 282.955 16.792C283.147 17.2827 283.243 17.7947 283.243 18.328C283.243 18.4453 283.232 18.5787 283.211 18.728C283.2 18.8667 283.184 19 283.163 19.128H276.091V17.848H282.299L281.595 18.424C281.691 17.8693 281.638 17.3733 281.435 16.936C281.232 16.4987 280.934 16.152 280.539 15.896C280.144 15.64 279.696 15.512 279.195 15.512C278.694 15.512 278.235 15.64 277.819 15.896C277.403 16.152 277.078 16.52 276.843 17C276.619 17.4693 276.528 18.0293 276.571 18.68C276.528 19.3093 276.624 19.864 276.859 20.344C277.104 20.8133 277.446 21.1813 277.883 21.448C278.331 21.704 278.816 21.832 279.339 21.832C279.915 21.832 280.4 21.6987 280.795 21.432C281.19 21.1653 281.51 20.824 281.755 20.408L283.003 21.048C282.832 21.4427 282.566 21.8053 282.203 22.136C281.851 22.456 281.43 22.712 280.939 22.904C280.459 23.096 279.92 23.192 279.323 23.192ZM288.521 23.192C287.657 23.192 286.905 22.9787 286.265 22.552C285.625 22.1253 285.172 21.5493 284.905 20.824L286.089 20.248C286.335 20.76 286.671 21.1653 287.097 21.464C287.524 21.7627 287.999 21.912 288.521 21.912C288.991 21.912 289.38 21.8 289.689 21.576C289.999 21.352 290.153 21.0587 290.153 20.696C290.153 20.44 290.079 20.2373 289.929 20.088C289.791 19.928 289.62 19.8053 289.417 19.72C289.215 19.624 289.028 19.5547 288.857 19.512L287.561 19.144C286.783 18.92 286.212 18.6 285.849 18.184C285.497 17.768 285.321 17.2827 285.321 16.728C285.321 16.216 285.449 15.7733 285.705 15.4C285.972 15.016 286.329 14.7173 286.777 14.504C287.236 14.2907 287.748 14.184 288.313 14.184C289.071 14.184 289.748 14.376 290.345 14.76C290.953 15.144 291.385 15.6827 291.641 16.376L290.425 16.936C290.233 16.488 289.945 16.136 289.561 15.88C289.177 15.6133 288.745 15.48 288.265 15.48C287.828 15.48 287.481 15.592 287.225 15.816C286.969 16.0293 286.841 16.3013 286.841 16.632C286.841 16.8773 286.905 17.08 287.033 17.24C287.161 17.3893 287.316 17.5067 287.497 17.592C287.679 17.6667 287.855 17.7307 288.025 17.784L289.433 18.2C290.137 18.4027 290.681 18.7173 291.065 19.144C291.46 19.5707 291.657 20.0827 291.657 20.68C291.657 21.16 291.524 21.592 291.257 21.976C290.991 22.36 290.623 22.6587 290.153 22.872C289.684 23.0853 289.14 23.192 288.521 23.192ZM296.943 23.192C296.079 23.192 295.327 22.9787 294.687 22.552C294.047 22.1253 293.594 21.5493 293.327 20.824L294.511 20.248C294.756 20.76 295.092 21.1653 295.519 21.464C295.946 21.7627 296.42 21.912 296.943 21.912C297.412 21.912 297.802 21.8 298.111 21.576C298.42 21.352 298.575 21.0587 298.575 20.696C298.575 20.44 298.5 20.2373 298.351 20.088C298.212 19.928 298.042 19.8053 297.839 19.72C297.636 19.624 297.45 19.5547 297.279 19.512L295.983 19.144C295.204 18.92 294.634 18.6 294.271 18.184C293.919 17.768 293.743 17.2827 293.743 16.728C293.743 16.216 293.871 15.7733 294.127 15.4C294.394 15.016 294.751 14.7173 295.199 14.504C295.658 14.2907 296.17 14.184 296.735 14.184C297.492 14.184 298.17 14.376 298.767 14.76C299.375 15.144 299.807 15.6827 300.063 16.376L298.847 16.936C298.655 16.488 298.367 16.136 297.983 15.88C297.599 15.6133 297.167 15.48 296.687 15.48C296.25 15.48 295.903 15.592 295.647 15.816C295.391 16.0293 295.263 16.3013 295.263 16.632C295.263 16.8773 295.327 17.08 295.455 17.24C295.583 17.3893 295.738 17.5067 295.919 17.592C296.1 17.6667 296.276 17.7307 296.447 17.784L297.855 18.2C298.559 18.4027 299.103 18.7173 299.487 19.144C299.882 19.5707 300.079 20.0827 300.079 20.68C300.079 21.16 299.946 21.592 299.679 21.976C299.412 22.36 299.044 22.6587 298.575 22.872C298.106 23.0853 297.562 23.192 296.943 23.192Z" fill="#413659"/>
</svg>