<svg width="260" height="32" viewBox="0 0 260 32" fill="none" xmlns="http://www.w3.org/2000/svg">
                    <path d="M17.7334 10.8133L19.4934 14.3333C19.7334 14.8133 20.3734 15.2933 20.9067 15.3733L24.0934 15.9067C26.1334 16.2533 26.6134 17.72 25.1467 19.1867L22.6667 21.6667C22.2534 22.08 22.0134 22.8933 22.1467 23.48L22.8534 26.56C23.4134 28.9867 22.1201 29.9333 19.9734 28.6667L16.9867 26.8933C16.44 26.5733 15.5601 26.5733 15.0134 26.8933L12.0267 28.6667C9.88002 29.9333 8.58668 28.9867 9.14668 26.56L9.85339 23.48C9.98672 22.9067 9.7467 22.0933 9.33337 21.6667L6.85339 19.1867C5.38672 17.72 5.86669 16.24 7.90669 15.9067L11.0934 15.3733C11.6267 15.28 12.2667 14.8133 12.5067 14.3333L14.2667 10.8133C15.2134 8.90667 16.7867 8.90667 17.7334 10.8133Z" fill="#413659"/>
                    <path opacity="0.4" d="M8 13C7.45333 13 7 12.5467 7 12V2.66666C7 2.12 7.45333 1.66666 8 1.66666C8.54667 1.66666 9 2.12 9 2.66666V12C9 12.5467 8.54667 13 8 13Z" fill="#413659"/>
                    <path opacity="0.4" d="M24 13C23.4533 13 23 12.5467 23 12V2.66666C23 2.12 23.4533 1.66666 24 1.66666C24.5467 1.66666 25 2.12 25 2.66666V12C25 12.5467 24.5467 13 24 13Z" fill="#413659"/>
                    <path opacity="0.4" d="M16 6.33333C15.4533 6.33333 15 5.88 15 5.33333V2.66666C15 2.12 15.4533 1.66666 16 1.66666C16.5467 1.66666 17 2.12 17 2.66666V5.33333C17 5.88 16.5467 6.33333 16 6.33333Z" fill="#413659"/>
                    <path d="M54.832 23.192C53.9893 23.192 53.2107 23.0427 52.496 22.744C51.7813 22.4347 51.1627 22.0027 50.64 21.448C50.1173 20.8933 49.7067 20.2427 49.408 19.496C49.12 18.7493 48.976 17.9333 48.976 17.048C48.976 16.152 49.12 15.3307 49.408 14.584C49.696 13.8373 50.1013 13.1867 50.624 12.632C51.1467 12.0773 51.7653 11.6507 52.48 11.352C53.1947 11.0427 53.9733 10.888 54.816 10.888C55.6373 10.888 56.3733 11.032 57.024 11.32C57.6853 11.608 58.24 11.9813 58.688 12.44C59.1467 12.8987 59.472 13.3893 59.664 13.912L58.256 14.6C57.9787 13.9067 57.5467 13.3573 56.96 12.952C56.3733 12.5467 55.6587 12.344 54.816 12.344C53.984 12.344 53.2427 12.5413 52.592 12.936C51.952 13.3307 51.4507 13.88 51.088 14.584C50.7253 15.288 50.544 16.1093 50.544 17.048C50.544 17.976 50.7253 18.792 51.088 19.496C51.4613 20.2 51.968 20.7493 52.608 21.144C53.2587 21.5387 54 21.736 54.832 21.736C55.5573 21.736 56.2133 21.5813 56.8 21.272C57.3867 20.9627 57.8507 20.536 58.192 19.992C58.5333 19.448 58.704 18.8187 58.704 18.104V17.368L59.424 18.04H54.816V16.68H60.288V17.736C60.288 18.568 60.144 19.32 59.856 19.992C59.568 20.664 59.1733 21.24 58.672 21.72C58.1707 22.1893 57.5893 22.552 56.928 22.808C56.2667 23.064 55.568 23.192 54.832 23.192ZM62.4801 23V14.376H63.9361V15.96L63.7761 15.736C63.9788 15.2453 64.2881 14.8827 64.7041 14.648C65.1201 14.4027 65.6268 14.28 66.2241 14.28H66.7521V15.688H66.0001C65.3921 15.688 64.9015 15.88 64.5281 16.264C64.1548 16.6373 63.9681 17.1707 63.9681 17.864V23H62.4801ZM70.8519 23.192C70.2865 23.192 69.7852 23.0907 69.3479 22.888C68.9212 22.6747 68.5852 22.3867 68.3399 22.024C68.0945 21.6507 67.9719 21.224 67.9719 20.744C67.9719 20.2853 68.0679 19.8747 68.2599 19.512C68.4625 19.1387 68.7719 18.824 69.1879 18.568C69.6145 18.312 70.1479 18.1307 70.7879 18.024L73.9879 17.496V18.744L71.1239 19.224C70.5692 19.32 70.1639 19.496 69.9079 19.752C69.6625 20.008 69.5399 20.3227 69.5399 20.696C69.5399 21.048 69.6785 21.3413 69.9559 21.576C70.2439 21.8107 70.6012 21.928 71.0279 21.928C71.5719 21.928 72.0412 21.816 72.4359 21.592C72.8412 21.3573 73.1559 21.0427 73.3799 20.648C73.6145 20.2533 73.7319 19.816 73.7319 19.336V17.144C73.7319 16.6747 73.5559 16.296 73.2039 16.008C72.8625 15.7093 72.4092 15.56 71.8439 15.56C71.3532 15.56 70.9159 15.688 70.5319 15.944C70.1585 16.1893 69.8812 16.52 69.6999 16.936L68.4039 16.264C68.5639 15.8693 68.8199 15.5173 69.1719 15.208C69.5239 14.888 69.9345 14.6373 70.4039 14.456C70.8732 14.2747 71.3639 14.184 71.8759 14.184C72.5372 14.184 73.1185 14.312 73.6199 14.568C74.1212 14.8133 74.5105 15.16 74.7879 15.608C75.0759 16.0453 75.2199 16.5573 75.2199 17.144V23H73.7639V21.368L74.0359 21.464C73.8545 21.8053 73.6092 22.104 73.2999 22.36C72.9905 22.616 72.6279 22.8187 72.2119 22.968C71.7959 23.1173 71.3425 23.192 70.8519 23.192ZM81.697 23.192C80.8863 23.192 80.1557 22.9947 79.505 22.6C78.865 22.2053 78.3583 21.6667 77.985 20.984C77.6117 20.3013 77.425 19.5387 77.425 18.696C77.425 17.832 77.6117 17.064 77.985 16.392C78.3583 15.7093 78.865 15.1707 79.505 14.776C80.1557 14.3813 80.8863 14.184 81.697 14.184C82.4117 14.184 83.0463 14.3387 83.601 14.648C84.1557 14.9467 84.593 15.352 84.913 15.864L84.673 16.232V10.888H86.177V23H84.721V21.16L84.913 21.416C84.6143 21.9813 84.177 22.4187 83.601 22.728C83.0357 23.0373 82.401 23.192 81.697 23.192ZM81.825 21.752C82.369 21.752 82.8543 21.6187 83.281 21.352C83.7077 21.0853 84.0437 20.7227 84.289 20.264C84.545 19.7947 84.673 19.272 84.673 18.696C84.673 18.1093 84.545 17.5867 84.289 17.128C84.0437 16.6587 83.7077 16.2907 83.281 16.024C82.8543 15.7573 82.369 15.624 81.825 15.624C81.2917 15.624 80.8063 15.7627 80.369 16.04C79.9423 16.3067 79.6063 16.6693 79.361 17.128C79.1157 17.576 78.993 18.0987 78.993 18.696C78.993 19.272 79.1157 19.7947 79.361 20.264C79.6063 20.7227 79.9423 21.0853 80.369 21.352C80.7957 21.6187 81.281 21.752 81.825 21.752ZM92.6981 23.192C91.8661 23.192 91.1248 22.9947 90.4741 22.6C89.8235 22.2053 89.3115 21.6667 88.9381 20.984C88.5648 20.2907 88.3781 19.5173 88.3781 18.664C88.3781 17.8 88.5595 17.032 88.9221 16.36C89.2955 15.688 89.7968 15.16 90.4261 14.776C91.0661 14.3813 91.7808 14.184 92.5701 14.184C93.2101 14.184 93.7755 14.3013 94.2661 14.536C94.7675 14.76 95.1888 15.0693 95.5301 15.464C95.8821 15.848 96.1488 16.2907 96.3301 16.792C96.5221 17.2827 96.6181 17.7947 96.6181 18.328C96.6181 18.4453 96.6075 18.5787 96.5861 18.728C96.5755 18.8667 96.5595 19 96.5381 19.128H89.4661V17.848H95.6741L94.9701 18.424C95.0661 17.8693 95.0128 17.3733 94.8101 16.936C94.6075 16.4987 94.3088 16.152 93.9141 15.896C93.5195 15.64 93.0715 15.512 92.5701 15.512C92.0688 15.512 91.6101 15.64 91.1941 15.896C90.7781 16.152 90.4528 16.52 90.2181 17C89.9941 17.4693 89.9035 18.0293 89.9461 18.68C89.9035 19.3093 89.9995 19.864 90.2341 20.344C90.4795 20.8133 90.8208 21.1813 91.2581 21.448C91.7061 21.704 92.1915 21.832 92.7141 21.832C93.2901 21.832 93.7755 21.6987 94.1701 21.432C94.5648 21.1653 94.8848 20.824 95.1301 20.408L96.3781 21.048C96.2075 21.4427 95.9408 21.8053 95.5781 22.136C95.2261 22.456 94.8048 22.712 94.3141 22.904C93.8341 23.096 93.2955 23.192 92.6981 23.192ZM104.352 23.192C103.787 23.192 103.285 23.0907 102.848 22.888C102.421 22.6747 102.085 22.3867 101.84 22.024C101.595 21.6507 101.472 21.224 101.472 20.744C101.472 20.2853 101.568 19.8747 101.76 19.512C101.963 19.1387 102.272 18.824 102.688 18.568C103.115 18.312 103.648 18.1307 104.288 18.024L107.488 17.496V18.744L104.624 19.224C104.069 19.32 103.664 19.496 103.408 19.752C103.163 20.008 103.04 20.3227 103.04 20.696C103.04 21.048 103.179 21.3413 103.456 21.576C103.744 21.8107 104.101 21.928 104.528 21.928C105.072 21.928 105.541 21.816 105.936 21.592C106.341 21.3573 106.656 21.0427 106.88 20.648C107.115 20.2533 107.232 19.816 107.232 19.336V17.144C107.232 16.6747 107.056 16.296 106.704 16.008C106.363 15.7093 105.909 15.56 105.344 15.56C104.853 15.56 104.416 15.688 104.032 15.944C103.659 16.1893 103.381 16.52 103.2 16.936L101.904 16.264C102.064 15.8693 102.32 15.5173 102.672 15.208C103.024 14.888 103.435 14.6373 103.904 14.456C104.373 14.2747 104.864 14.184 105.376 14.184C106.037 14.184 106.619 14.312 107.12 14.568C107.621 14.8133 108.011 15.16 108.288 15.608C108.576 16.0453 108.72 16.5573 108.72 17.144V23H107.264V21.368L107.536 21.464C107.355 21.8053 107.109 22.104 106.8 22.36C106.491 22.616 106.128 22.8187 105.712 22.968C105.296 23.1173 104.843 23.192 104.352 23.192ZM111.277 23V14.376H112.733V16.056L112.493 15.912C112.706 15.368 113.048 14.9467 113.517 14.648C113.997 14.3387 114.557 14.184 115.197 14.184C115.816 14.184 116.365 14.3227 116.845 14.6C117.336 14.8773 117.72 15.2613 117.997 15.752C118.285 16.2427 118.429 16.7973 118.429 17.416V23H116.925V17.896C116.925 17.416 116.84 17.0107 116.669 16.68C116.498 16.3493 116.253 16.0933 115.933 15.912C115.624 15.72 115.266 15.624 114.861 15.624C114.456 15.624 114.093 15.72 113.773 15.912C113.464 16.0933 113.218 16.3547 113.037 16.696C112.856 17.0267 112.765 17.4267 112.765 17.896V23H111.277ZM124.728 23.192C123.918 23.192 123.187 22.9947 122.536 22.6C121.896 22.2053 121.39 21.6667 121.016 20.984C120.643 20.3013 120.456 19.5387 120.456 18.696C120.456 17.832 120.643 17.064 121.016 16.392C121.39 15.7093 121.896 15.1707 122.536 14.776C123.187 14.3813 123.918 14.184 124.728 14.184C125.443 14.184 126.078 14.3387 126.632 14.648C127.187 14.9467 127.624 15.352 127.944 15.864L127.704 16.232V10.888H129.208V23H127.752V21.16L127.944 21.416C127.646 21.9813 127.208 22.4187 126.632 22.728C126.067 23.0373 125.432 23.192 124.728 23.192ZM124.856 21.752C125.4 21.752 125.886 21.6187 126.312 21.352C126.739 21.0853 127.075 20.7227 127.32 20.264C127.576 19.7947 127.704 19.272 127.704 18.696C127.704 18.1093 127.576 17.5867 127.32 17.128C127.075 16.6587 126.739 16.2907 126.312 16.024C125.886 15.7573 125.4 15.624 124.856 15.624C124.323 15.624 123.838 15.7627 123.4 16.04C122.974 16.3067 122.638 16.6693 122.392 17.128C122.147 17.576 122.024 18.0987 122.024 18.696C122.024 19.272 122.147 19.7947 122.392 20.264C122.638 20.7227 122.974 21.0853 123.4 21.352C123.827 21.6187 124.312 21.752 124.856 21.752ZM134.777 23V14.376H136.233V15.96L136.073 15.736C136.276 15.2453 136.585 14.8827 137.001 14.648C137.417 14.4027 137.924 14.28 138.521 14.28H139.049V15.688H138.297C137.689 15.688 137.198 15.88 136.825 16.264C136.452 16.6373 136.265 17.1707 136.265 17.864V23H134.777ZM143.149 23.192C142.583 23.192 142.082 23.0907 141.645 22.888C141.218 22.6747 140.882 22.3867 140.637 22.024C140.391 21.6507 140.269 21.224 140.269 20.744C140.269 20.2853 140.365 19.8747 140.557 19.512C140.759 19.1387 141.069 18.824 141.485 18.568C141.911 18.312 142.445 18.1307 143.085 18.024L146.285 17.496V18.744L143.421 19.224C142.866 19.32 142.461 19.496 142.205 19.752C141.959 20.008 141.837 20.3227 141.837 20.696C141.837 21.048 141.975 21.3413 142.253 21.576C142.541 21.8107 142.898 21.928 143.325 21.928C143.869 21.928 144.338 21.816 144.733 21.592C145.138 21.3573 145.453 21.0427 145.677 20.648C145.911 20.2533 146.029 19.816 146.029 19.336V17.144C146.029 16.6747 145.853 16.296 145.501 16.008C145.159 15.7093 144.706 15.56 144.141 15.56C143.65 15.56 143.213 15.688 142.829 15.944C142.455 16.1893 142.178 16.52 141.997 16.936L140.701 16.264C140.861 15.8693 141.117 15.5173 141.469 15.208C141.821 14.888 142.231 14.6373 142.701 14.456C143.17 14.2747 143.661 14.184 144.173 14.184C144.834 14.184 145.415 14.312 145.917 14.568C146.418 14.8133 146.807 15.16 147.085 15.608C147.373 16.0453 147.517 16.5573 147.517 17.144V23H146.061V21.368L146.333 21.464C146.151 21.8053 145.906 22.104 145.597 22.36C145.287 22.616 144.925 22.8187 144.509 22.968C144.093 23.1173 143.639 23.192 143.149 23.192ZM150.074 23V14.376H151.53V16.056L151.29 15.912C151.503 15.368 151.845 14.9467 152.314 14.648C152.794 14.3387 153.354 14.184 153.994 14.184C154.613 14.184 155.162 14.3227 155.642 14.6C156.133 14.8773 156.517 15.2613 156.794 15.752C157.082 16.2427 157.226 16.7973 157.226 17.416V23H155.722V17.896C155.722 17.416 155.637 17.0107 155.466 16.68C155.295 16.3493 155.05 16.0933 154.73 15.912C154.421 15.72 154.063 15.624 153.658 15.624C153.253 15.624 152.89 15.72 152.57 15.912C152.261 16.0933 152.015 16.3547 151.834 16.696C151.653 17.0267 151.562 17.4267 151.562 17.896V23H150.074ZM159.605 23V10.888H161.093V19.192L160.485 19.048L165.061 14.376H166.965L163.653 17.848L167.189 23H165.429L162.197 18.328L163.125 18.28L160.613 20.904L161.093 19.816V23H159.605ZM175.793 23.192C174.95 23.192 174.198 22.9947 173.537 22.6C172.886 22.2053 172.374 21.6667 172.001 20.984C171.627 20.3013 171.441 19.5333 171.441 18.68C171.441 17.816 171.627 17.048 172.001 16.376C172.374 15.704 172.886 15.1707 173.537 14.776C174.198 14.3813 174.95 14.184 175.793 14.184C176.358 14.184 176.886 14.2853 177.377 14.488C177.867 14.6907 178.299 14.9627 178.673 15.304C179.046 15.6453 179.318 16.0453 179.489 16.504L178.161 17.144C177.958 16.696 177.649 16.3333 177.233 16.056C176.817 15.768 176.337 15.624 175.793 15.624C175.27 15.624 174.795 15.7573 174.369 16.024C173.953 16.2907 173.622 16.6533 173.377 17.112C173.131 17.5707 173.009 18.0987 173.009 18.696C173.009 19.272 173.131 19.7947 173.377 20.264C173.622 20.7227 173.953 21.0853 174.369 21.352C174.795 21.6187 175.27 21.752 175.793 21.752C176.337 21.752 176.817 21.6133 177.233 21.336C177.649 21.048 177.958 20.6693 178.161 20.2L179.489 20.872C179.318 21.32 179.046 21.72 178.673 22.072C178.299 22.4133 177.867 22.6853 177.377 22.888C176.886 23.0907 176.358 23.192 175.793 23.192ZM184.102 23.192C183.537 23.192 183.035 23.0907 182.598 22.888C182.171 22.6747 181.835 22.3867 181.59 22.024C181.345 21.6507 181.222 21.224 181.222 20.744C181.222 20.2853 181.318 19.8747 181.51 19.512C181.713 19.1387 182.022 18.824 182.438 18.568C182.865 18.312 183.398 18.1307 184.038 18.024L187.238 17.496V18.744L184.374 19.224C183.819 19.32 183.414 19.496 183.158 19.752C182.913 20.008 182.79 20.3227 182.79 20.696C182.79 21.048 182.929 21.3413 183.206 21.576C183.494 21.8107 183.851 21.928 184.278 21.928C184.822 21.928 185.291 21.816 185.686 21.592C186.091 21.3573 186.406 21.0427 186.63 20.648C186.865 20.2533 186.982 19.816 186.982 19.336V17.144C186.982 16.6747 186.806 16.296 186.454 16.008C186.113 15.7093 185.659 15.56 185.094 15.56C184.603 15.56 184.166 15.688 183.782 15.944C183.409 16.1893 183.131 16.52 182.95 16.936L181.654 16.264C181.814 15.8693 182.07 15.5173 182.422 15.208C182.774 14.888 183.185 14.6373 183.654 14.456C184.123 14.2747 184.614 14.184 185.126 14.184C185.787 14.184 186.369 14.312 186.87 14.568C187.371 14.8133 187.761 15.16 188.038 15.608C188.326 16.0453 188.47 16.5573 188.47 17.144V23H187.014V21.368L187.286 21.464C187.105 21.8053 186.859 22.104 186.55 22.36C186.241 22.616 185.878 22.8187 185.462 22.968C185.046 23.1173 184.593 23.192 184.102 23.192ZM191.027 23V14.376H192.483V16.056L192.243 15.912C192.456 15.368 192.798 14.9467 193.267 14.648C193.747 14.3387 194.307 14.184 194.947 14.184C195.566 14.184 196.115 14.3227 196.595 14.6C197.086 14.8773 197.47 15.2613 197.747 15.752C198.035 16.2427 198.179 16.7973 198.179 17.416V23H196.675V17.896C196.675 17.416 196.59 17.0107 196.419 16.68C196.248 16.3493 196.003 16.0933 195.683 15.912C195.374 15.72 195.016 15.624 194.611 15.624C194.206 15.624 193.843 15.72 193.523 15.912C193.214 16.0933 192.968 16.3547 192.787 16.696C192.606 17.0267 192.515 17.4267 192.515 17.896V23H191.027ZM204.478 23.192C203.668 23.192 202.937 22.9947 202.286 22.6C201.646 22.2053 201.14 21.6667 200.766 20.984C200.393 20.3013 200.206 19.5387 200.206 18.696C200.206 17.832 200.393 17.064 200.766 16.392C201.14 15.7093 201.646 15.1707 202.286 14.776C202.937 14.3813 203.668 14.184 204.478 14.184C205.193 14.184 205.828 14.3387 206.382 14.648C206.937 14.9467 207.374 15.352 207.694 15.864L207.454 16.232V10.888H208.958V23H207.502V21.16L207.694 21.416C207.396 21.9813 206.958 22.4187 206.382 22.728C205.817 23.0373 205.182 23.192 204.478 23.192ZM204.606 21.752C205.15 21.752 205.636 21.6187 206.062 21.352C206.489 21.0853 206.825 20.7227 207.07 20.264C207.326 19.7947 207.454 19.272 207.454 18.696C207.454 18.1093 207.326 17.5867 207.07 17.128C206.825 16.6587 206.489 16.2907 206.062 16.024C205.636 15.7573 205.15 15.624 204.606 15.624C204.073 15.624 203.588 15.7627 203.15 16.04C202.724 16.3067 202.388 16.6693 202.142 17.128C201.897 17.576 201.774 18.0987 201.774 18.696C201.774 19.272 201.897 19.7947 202.142 20.264C202.388 20.7227 202.724 21.0853 203.15 21.352C203.577 21.6187 204.062 21.752 204.606 21.752ZM211.511 23V14.376H212.999V23H211.511ZM211.511 13V11.08H212.999V13H211.511ZM219.478 23.192C218.668 23.192 217.937 22.9947 217.286 22.6C216.646 22.2053 216.14 21.6667 215.766 20.984C215.393 20.3013 215.206 19.5387 215.206 18.696C215.206 17.832 215.393 17.064 215.766 16.392C216.14 15.7093 216.646 15.1707 217.286 14.776C217.937 14.3813 218.668 14.184 219.478 14.184C220.193 14.184 220.828 14.3387 221.382 14.648C221.937 14.9467 222.374 15.352 222.694 15.864L222.454 16.232V10.888H223.958V23H222.502V21.16L222.694 21.416C222.396 21.9813 221.958 22.4187 221.382 22.728C220.817 23.0373 220.182 23.192 219.478 23.192ZM219.606 21.752C220.15 21.752 220.636 21.6187 221.062 21.352C221.489 21.0853 221.825 20.7227 222.07 20.264C222.326 19.7947 222.454 19.272 222.454 18.696C222.454 18.1093 222.326 17.5867 222.07 17.128C221.825 16.6587 221.489 16.2907 221.062 16.024C220.636 15.7573 220.15 15.624 219.606 15.624C219.073 15.624 218.588 15.7627 218.15 16.04C217.724 16.3067 217.388 16.6693 217.142 17.128C216.897 17.576 216.774 18.0987 216.774 18.696C216.774 19.272 216.897 19.7947 217.142 20.264C217.388 20.7227 217.724 21.0853 218.15 21.352C218.577 21.6187 219.062 21.752 219.606 21.752ZM229.039 23.192C228.474 23.192 227.973 23.0907 227.535 22.888C227.109 22.6747 226.773 22.3867 226.527 22.024C226.282 21.6507 226.159 21.224 226.159 20.744C226.159 20.2853 226.255 19.8747 226.447 19.512C226.65 19.1387 226.959 18.824 227.375 18.568C227.802 18.312 228.335 18.1307 228.975 18.024L232.175 17.496V18.744L229.311 19.224C228.757 19.32 228.351 19.496 228.095 19.752C227.85 20.008 227.727 20.3227 227.727 20.696C227.727 21.048 227.866 21.3413 228.143 21.576C228.431 21.8107 228.789 21.928 229.215 21.928C229.759 21.928 230.229 21.816 230.623 21.592C231.029 21.3573 231.343 21.0427 231.567 20.648C231.802 20.2533 231.919 19.816 231.919 19.336V17.144C231.919 16.6747 231.743 16.296 231.391 16.008C231.05 15.7093 230.597 15.56 230.031 15.56C229.541 15.56 229.103 15.688 228.719 15.944C228.346 16.1893 228.069 16.52 227.887 16.936L226.591 16.264C226.751 15.8693 227.007 15.5173 227.359 15.208C227.711 14.888 228.122 14.6373 228.591 14.456C229.061 14.2747 229.551 14.184 230.063 14.184C230.725 14.184 231.306 14.312 231.807 14.568C232.309 14.8133 232.698 15.16 232.975 15.608C233.263 16.0453 233.407 16.5573 233.407 17.144V23H231.951V21.368L232.223 21.464C232.042 21.8053 231.797 22.104 231.487 22.36C231.178 22.616 230.815 22.8187 230.399 22.968C229.983 23.1173 229.53 23.192 229.039 23.192ZM239.312 23.096C238.47 23.096 237.819 22.856 237.36 22.376C236.912 21.896 236.688 21.2187 236.688 20.344V15.8H235.12V14.376H235.44C235.824 14.376 236.128 14.2587 236.352 14.024C236.576 13.7893 236.688 13.48 236.688 13.096V12.392H238.176V14.376H240.112V15.8H238.176V20.296C238.176 20.584 238.219 20.8347 238.304 21.048C238.4 21.2613 238.555 21.432 238.768 21.56C238.982 21.6773 239.264 21.736 239.616 21.736C239.691 21.736 239.782 21.7307 239.888 21.72C240.006 21.7093 240.112 21.6987 240.208 21.688V23C240.07 23.032 239.915 23.0533 239.744 23.064C239.574 23.0853 239.43 23.096 239.312 23.096ZM246.136 23.192C245.304 23.192 244.562 22.9947 243.912 22.6C243.261 22.2053 242.749 21.6667 242.376 20.984C242.002 20.2907 241.816 19.5173 241.816 18.664C241.816 17.8 241.997 17.032 242.36 16.36C242.733 15.688 243.234 15.16 243.864 14.776C244.504 14.3813 245.218 14.184 246.008 14.184C246.648 14.184 247.213 14.3013 247.704 14.536C248.205 14.76 248.626 15.0693 248.968 15.464C249.32 15.848 249.586 16.2907 249.768 16.792C249.96 17.2827 250.056 17.7947 250.056 18.328C250.056 18.4453 250.045 18.5787 250.024 18.728C250.013 18.8667 249.997 19 249.976 19.128H242.904V17.848H249.112L248.408 18.424C248.504 17.8693 248.45 17.3733 248.248 16.936C248.045 16.4987 247.746 16.152 247.352 15.896C246.957 15.64 246.509 15.512 246.008 15.512C245.506 15.512 245.048 15.64 244.632 15.896C244.216 16.152 243.89 16.52 243.656 17C243.432 17.4693 243.341 18.0293 243.384 18.68C243.341 19.3093 243.437 19.864 243.672 20.344C243.917 20.8133 244.258 21.1813 244.696 21.448C245.144 21.704 245.629 21.832 246.152 21.832C246.728 21.832 247.213 21.6987 247.608 21.432C248.002 21.1653 248.322 20.824 248.568 20.408L249.816 21.048C249.645 21.4427 249.378 21.8053 249.016 22.136C248.664 22.456 248.242 22.712 247.752 22.904C247.272 23.096 246.733 23.192 246.136 23.192ZM255.334 23.192C254.47 23.192 253.718 22.9787 253.078 22.552C252.438 22.1253 251.984 21.5493 251.718 20.824L252.902 20.248C253.147 20.76 253.483 21.1653 253.91 21.464C254.336 21.7627 254.811 21.912 255.334 21.912C255.803 21.912 256.192 21.8 256.502 21.576C256.811 21.352 256.966 21.0587 256.966 20.696C256.966 20.44 256.891 20.2373 256.742 20.088C256.603 19.928 256.432 19.8053 256.23 19.72C256.027 19.624 255.84 19.5547 255.67 19.512L254.374 19.144C253.595 18.92 253.024 18.6 252.662 18.184C252.31 17.768 252.134 17.2827 252.134 16.728C252.134 16.216 252.262 15.7733 252.518 15.4C252.784 15.016 253.142 14.7173 253.59 14.504C254.048 14.2907 254.56 14.184 255.126 14.184C255.883 14.184 256.56 14.376 257.158 14.76C257.766 15.144 258.198 15.6827 258.454 16.376L257.238 16.936C257.046 16.488 256.758 16.136 256.374 15.88C255.99 15.6133 255.558 15.48 255.078 15.48C254.64 15.48 254.294 15.592 254.038 15.816C253.782 16.0293 253.654 16.3013 253.654 16.632C253.654 16.8773 253.718 17.08 253.846 17.24C253.974 17.3893 254.128 17.5067 254.31 17.592C254.491 17.6667 254.667 17.7307 254.838 17.784L256.246 18.2C256.95 18.4027 257.494 18.7173 257.878 19.144C258.272 19.5707 258.47 20.0827 258.47 20.68C258.47 21.16 258.336 21.592 258.07 21.976C257.803 22.36 257.435 22.6587 256.966 22.872C256.496 23.0853 255.952 23.192 255.334 23.192Z" fill="#413659"/>
</svg>