<svg width="260" height="32" viewBox="0 0 260 32" fill="none" xmlns="http://www.w3.org/2000/svg">
                    <path opacity="0.4" d="M23.3734 10.36C23.28 10.3467 23.1867 10.3467 23.0934 10.36C21.0267 10.2933 19.3867 8.6 19.3867 6.52C19.3867 4.4 21.1067 2.66667 23.2401 2.66667C25.3601 2.66667 27.0934 4.38667 27.0934 6.52C27.0801 8.6 25.44 10.2933 23.3734 10.36Z" fill="#413659"/>
                    <path opacity="0.4" d="M27.72 19.6C26.2266 20.6 24.1333 20.9733 22.2 20.72C22.7066 19.6267 22.9733 18.4133 22.9866 17.1333C22.9866 15.8 22.6933 14.5333 22.1333 13.4267C24.1066 13.16 26.2 13.5333 27.7066 14.5333C29.8133 15.92 29.8133 18.2 27.72 19.6Z" fill="#413659"/>
                    <path opacity="0.4" d="M8.5867 10.36C8.68003 10.3467 8.77337 10.3467 8.8667 10.36C10.9334 10.2933 12.5734 8.6 12.5734 6.52C12.5734 4.4 10.8534 2.66667 8.72003 2.66667C6.60003 2.66667 4.8667 4.38667 4.8667 6.52C4.88003 8.6 6.52003 10.2933 8.5867 10.36Z" fill="#413659"/>
                    <path opacity="0.4" d="M8.73324 17.1333C8.73324 18.4267 9.01324 19.6533 9.51991 20.76C7.63991 20.96 5.67991 20.56 4.23991 19.6133C2.13325 18.2133 2.13325 15.9333 4.23991 14.5333C5.66658 13.5733 7.67991 13.1867 9.57325 13.4C9.02658 14.52 8.73324 15.7867 8.73324 17.1333Z" fill="#413659"/>
                    <path d="M16.1599 21.16C16.0532 21.1467 15.9332 21.1467 15.8132 21.16C13.3599 21.08 11.3999 19.0667 11.3999 16.5867C11.3999 14.0533 13.4399 12 15.9866 12C18.5199 12 20.5732 14.0533 20.5732 16.5867C20.5732 19.0667 18.6266 21.08 16.1599 21.16Z" fill="#413659"/>
                    <path d="M11.8267 23.92C9.81332 25.2667 9.81332 27.48 11.8267 28.8133C14.12 30.3467 17.88 30.3467 20.1733 28.8133C22.1867 27.4667 22.1867 25.2533 20.1733 23.92C17.8933 22.3867 14.1333 22.3867 11.8267 23.92Z" fill="#413659"/>
                    <path d="M53.424 23.192C52.6667 23.192 51.9733 23.0533 51.344 22.776C50.7147 22.488 50.1813 22.0987 49.744 21.608C49.3067 21.1173 48.992 20.568 48.8 19.96L50.16 19.4C50.448 20.168 50.8747 20.76 51.44 21.176C52.016 21.5813 52.688 21.784 53.456 21.784C53.9253 21.784 54.336 21.7093 54.688 21.56C55.04 21.4107 55.312 21.2027 55.504 20.936C55.7067 20.6587 55.808 20.3387 55.808 19.976C55.808 19.4747 55.664 19.08 55.376 18.792C55.0987 18.4933 54.688 18.2693 54.144 18.12L51.952 17.448C51.088 17.1813 50.4267 16.76 49.968 16.184C49.5093 15.608 49.28 14.9467 49.28 14.2C49.28 13.5493 49.4347 12.9787 49.744 12.488C50.064 11.9867 50.5013 11.5973 51.056 11.32C51.6213 11.032 52.2613 10.888 52.976 10.888C53.6907 10.888 54.336 11.016 54.912 11.272C55.4987 11.528 55.9947 11.8747 56.4 12.312C56.8053 12.7387 57.104 13.2293 57.296 13.784L55.952 14.344C55.696 13.672 55.312 13.1653 54.8 12.824C54.288 12.472 53.6853 12.296 52.992 12.296C52.5653 12.296 52.1867 12.3707 51.856 12.52C51.536 12.6587 51.2853 12.8667 51.104 13.144C50.9333 13.4107 50.848 13.7307 50.848 14.104C50.848 14.5413 50.9867 14.9307 51.264 15.272C51.5413 15.6133 51.9627 15.8747 52.528 16.056L54.528 16.648C55.4667 16.936 56.176 17.3467 56.656 17.88C57.136 18.4133 57.376 19.0747 57.376 19.864C57.376 20.5147 57.2053 21.0907 56.864 21.592C56.5333 22.0933 56.0693 22.488 55.472 22.776C54.8853 23.0533 54.2027 23.192 53.424 23.192ZM63.7138 23.192C62.8818 23.192 62.1404 22.9947 61.4898 22.6C60.8391 22.2053 60.3271 21.6667 59.9538 20.984C59.5804 20.2907 59.3938 19.5173 59.3938 18.664C59.3938 17.8 59.5751 17.032 59.9378 16.36C60.3111 15.688 60.8124 15.16 61.4418 14.776C62.0818 14.3813 62.7964 14.184 63.5858 14.184C64.2258 14.184 64.7911 14.3013 65.2818 14.536C65.7831 14.76 66.2044 15.0693 66.5458 15.464C66.8978 15.848 67.1644 16.2907 67.3458 16.792C67.5378 17.2827 67.6337 17.7947 67.6337 18.328C67.6337 18.4453 67.6231 18.5787 67.6018 18.728C67.5911 18.8667 67.5751 19 67.5538 19.128H60.4818V17.848H66.6898L65.9858 18.424C66.0818 17.8693 66.0284 17.3733 65.8258 16.936C65.6231 16.4987 65.3244 16.152 64.9298 15.896C64.5351 15.64 64.0871 15.512 63.5858 15.512C63.0844 15.512 62.6258 15.64 62.2098 15.896C61.7938 16.152 61.4684 16.52 61.2338 17C61.0098 17.4693 60.9191 18.0293 60.9618 18.68C60.9191 19.3093 61.0151 19.864 61.2498 20.344C61.4951 20.8133 61.8364 21.1813 62.2738 21.448C62.7218 21.704 63.2071 21.832 63.7298 21.832C64.3058 21.832 64.7911 21.6987 65.1858 21.432C65.5804 21.1653 65.9004 20.824 66.1458 20.408L67.3938 21.048C67.2231 21.4427 66.9564 21.8053 66.5938 22.136C66.2418 22.456 65.8204 22.712 65.3298 22.904C64.8498 23.096 64.3111 23.192 63.7138 23.192ZM69.8239 23V10.888H71.3119V23H69.8239ZM77.8388 23.192C77.0068 23.192 76.2654 22.9947 75.6148 22.6C74.9641 22.2053 74.4521 21.6667 74.0788 20.984C73.7054 20.2907 73.5188 19.5173 73.5188 18.664C73.5188 17.8 73.7001 17.032 74.0628 16.36C74.4361 15.688 74.9374 15.16 75.5668 14.776C76.2068 14.3813 76.9214 14.184 77.7108 14.184C78.3508 14.184 78.9161 14.3013 79.4068 14.536C79.9081 14.76 80.3294 15.0693 80.6708 15.464C81.0228 15.848 81.2894 16.2907 81.4708 16.792C81.6628 17.2827 81.7587 17.7947 81.7587 18.328C81.7587 18.4453 81.7481 18.5787 81.7268 18.728C81.7161 18.8667 81.7001 19 81.6788 19.128H74.6068V17.848H80.8148L80.1108 18.424C80.2068 17.8693 80.1534 17.3733 79.9508 16.936C79.7481 16.4987 79.4494 16.152 79.0548 15.896C78.6601 15.64 78.2121 15.512 77.7108 15.512C77.2094 15.512 76.7508 15.64 76.3348 15.896C75.9188 16.152 75.5934 16.52 75.3588 17C75.1348 17.4693 75.0441 18.0293 75.0868 18.68C75.0441 19.3093 75.1401 19.864 75.3748 20.344C75.6201 20.8133 75.9614 21.1813 76.3988 21.448C76.8468 21.704 77.3321 21.832 77.8548 21.832C78.4308 21.832 78.9161 21.6987 79.3108 21.432C79.7054 21.1653 80.0254 20.824 80.2708 20.408L81.5188 21.048C81.3481 21.4427 81.0814 21.8053 80.7188 22.136C80.3668 22.456 79.9454 22.712 79.4548 22.904C78.9748 23.096 78.4361 23.192 77.8388 23.192ZM87.9489 23.192C87.1062 23.192 86.3542 22.9947 85.6929 22.6C85.0422 22.2053 84.5302 21.6667 84.1569 20.984C83.7835 20.3013 83.5969 19.5333 83.5969 18.68C83.5969 17.816 83.7835 17.048 84.1569 16.376C84.5302 15.704 85.0422 15.1707 85.6929 14.776C86.3542 14.3813 87.1062 14.184 87.9489 14.184C88.5142 14.184 89.0422 14.2853 89.5329 14.488C90.0235 14.6907 90.4555 14.9627 90.8289 15.304C91.2022 15.6453 91.4742 16.0453 91.6449 16.504L90.3169 17.144C90.1142 16.696 89.8049 16.3333 89.3889 16.056C88.9729 15.768 88.4929 15.624 87.9489 15.624C87.4262 15.624 86.9515 15.7573 86.5249 16.024C86.1089 16.2907 85.7782 16.6533 85.5329 17.112C85.2875 17.5707 85.1649 18.0987 85.1649 18.696C85.1649 19.272 85.2875 19.7947 85.5329 20.264C85.7782 20.7227 86.1089 21.0853 86.5249 21.352C86.9515 21.6187 87.4262 21.752 87.9489 21.752C88.4929 21.752 88.9729 21.6133 89.3889 21.336C89.8049 21.048 90.1142 20.6693 90.3169 20.2L91.6449 20.872C91.4742 21.32 91.2022 21.72 90.8289 22.072C90.4555 22.4133 90.0235 22.6853 89.5329 22.888C89.0422 23.0907 88.5142 23.192 87.9489 23.192ZM97.3435 23.096C96.5008 23.096 95.8502 22.856 95.3915 22.376C94.9435 21.896 94.7195 21.2187 94.7195 20.344V15.8H93.1515V14.376H93.4715C93.8555 14.376 94.1595 14.2587 94.3835 14.024C94.6075 13.7893 94.7195 13.48 94.7195 13.096V12.392H96.2075V14.376H98.1435V15.8H96.2075V20.296C96.2075 20.584 96.2502 20.8347 96.3355 21.048C96.4315 21.2613 96.5862 21.432 96.7995 21.56C97.0128 21.6773 97.2955 21.736 97.6475 21.736C97.7222 21.736 97.8128 21.7307 97.9195 21.72C98.0368 21.7093 98.1435 21.6987 98.2395 21.688V23C98.1008 23.032 97.9462 23.0533 97.7755 23.064C97.6048 23.0853 97.4608 23.096 97.3435 23.096ZM106.953 23.096C106.11 23.096 105.46 22.856 105.001 22.376C104.553 21.896 104.329 21.2187 104.329 20.344V15.8H102.761V14.376H103.081C103.465 14.376 103.769 14.2587 103.993 14.024C104.217 13.7893 104.329 13.48 104.329 13.096V12.392H105.817V14.376H107.753V15.8H105.817V20.296C105.817 20.584 105.86 20.8347 105.945 21.048C106.041 21.2613 106.196 21.432 106.409 21.56C106.622 21.6773 106.905 21.736 107.257 21.736C107.332 21.736 107.422 21.7307 107.529 21.72C107.646 21.7093 107.753 21.6987 107.849 21.688V23C107.71 23.032 107.556 23.0533 107.385 23.064C107.214 23.0853 107.07 23.096 106.953 23.096ZM110.043 23V10.888H111.531V16.056L111.259 15.912C111.472 15.368 111.813 14.9467 112.283 14.648C112.763 14.3387 113.323 14.184 113.963 14.184C114.581 14.184 115.131 14.3227 115.611 14.6C116.101 14.8773 116.485 15.2613 116.763 15.752C117.051 16.2427 117.195 16.7973 117.195 17.416V23H115.691V17.896C115.691 17.416 115.6 17.0107 115.419 16.68C115.248 16.3493 115.008 16.0933 114.699 15.912C114.389 15.72 114.032 15.624 113.627 15.624C113.232 15.624 112.875 15.72 112.555 15.912C112.235 16.0933 111.984 16.3547 111.803 16.696C111.621 17.0267 111.531 17.4267 111.531 17.896V23H110.043ZM123.542 23.192C122.71 23.192 121.969 22.9947 121.318 22.6C120.667 22.2053 120.155 21.6667 119.782 20.984C119.409 20.2907 119.222 19.5173 119.222 18.664C119.222 17.8 119.403 17.032 119.766 16.36C120.139 15.688 120.641 15.16 121.27 14.776C121.91 14.3813 122.625 14.184 123.414 14.184C124.054 14.184 124.619 14.3013 125.11 14.536C125.611 14.76 126.033 15.0693 126.374 15.464C126.726 15.848 126.993 16.2907 127.174 16.792C127.366 17.2827 127.462 17.7947 127.462 18.328C127.462 18.4453 127.451 18.5787 127.43 18.728C127.419 18.8667 127.403 19 127.382 19.128H120.31V17.848H126.518L125.814 18.424C125.91 17.8693 125.857 17.3733 125.654 16.936C125.451 16.4987 125.153 16.152 124.758 15.896C124.363 15.64 123.915 15.512 123.414 15.512C122.913 15.512 122.454 15.64 122.038 15.896C121.622 16.152 121.297 16.52 121.062 17C120.838 17.4693 120.747 18.0293 120.79 18.68C120.747 19.3093 120.843 19.864 121.078 20.344C121.323 20.8133 121.665 21.1813 122.102 21.448C122.55 21.704 123.035 21.832 123.558 21.832C124.134 21.832 124.619 21.6987 125.014 21.432C125.409 21.1653 125.729 20.824 125.974 20.408L127.222 21.048C127.051 21.4427 126.785 21.8053 126.422 22.136C126.07 22.456 125.649 22.712 125.158 22.904C124.678 23.096 124.139 23.192 123.542 23.192ZM137.132 23.192C136.438 23.192 135.804 23.0373 135.228 22.728C134.662 22.4187 134.225 21.9813 133.916 21.416L134.124 21.16V23H132.668V10.888H134.156V16.232L133.932 15.864C134.252 15.352 134.689 14.9467 135.244 14.648C135.798 14.3387 136.433 14.184 137.148 14.184C137.958 14.184 138.684 14.3813 139.324 14.776C139.974 15.1707 140.486 15.7093 140.86 16.392C141.233 17.064 141.42 17.832 141.42 18.696C141.42 19.5387 141.233 20.3013 140.86 20.984C140.486 21.6667 139.974 22.2053 139.324 22.6C138.684 22.9947 137.953 23.192 137.132 23.192ZM137.02 21.752C137.564 21.752 138.049 21.6187 138.476 21.352C138.902 21.0853 139.233 20.7227 139.468 20.264C139.713 19.7947 139.836 19.272 139.836 18.696C139.836 18.0987 139.713 17.576 139.468 17.128C139.233 16.6693 138.902 16.3067 138.476 16.04C138.049 15.7627 137.564 15.624 137.02 15.624C136.476 15.624 135.985 15.7573 135.548 16.024C135.121 16.2907 134.78 16.6587 134.524 17.128C134.278 17.5867 134.156 18.1093 134.156 18.696C134.156 19.272 134.278 19.7947 134.524 20.264C134.78 20.7227 135.121 21.0853 135.548 21.352C135.985 21.6187 136.476 21.752 137.02 21.752ZM147.589 23.192C146.757 23.192 146.015 22.9947 145.365 22.6C144.714 22.2053 144.202 21.6667 143.829 20.984C143.455 20.2907 143.269 19.5173 143.269 18.664C143.269 17.8 143.45 17.032 143.813 16.36C144.186 15.688 144.687 15.16 145.317 14.776C145.957 14.3813 146.671 14.184 147.461 14.184C148.101 14.184 148.666 14.3013 149.157 14.536C149.658 14.76 150.079 15.0693 150.421 15.464C150.773 15.848 151.039 16.2907 151.221 16.792C151.413 17.2827 151.509 17.7947 151.509 18.328C151.509 18.4453 151.498 18.5787 151.477 18.728C151.466 18.8667 151.45 19 151.429 19.128H144.357V17.848H150.565L149.861 18.424C149.957 17.8693 149.903 17.3733 149.701 16.936C149.498 16.4987 149.199 16.152 148.805 15.896C148.41 15.64 147.962 15.512 147.461 15.512C146.959 15.512 146.501 15.64 146.085 15.896C145.669 16.152 145.343 16.52 145.109 17C144.885 17.4693 144.794 18.0293 144.837 18.68C144.794 19.3093 144.89 19.864 145.125 20.344C145.37 20.8133 145.711 21.1813 146.149 21.448C146.597 21.704 147.082 21.832 147.605 21.832C148.181 21.832 148.666 21.6987 149.061 21.432C149.455 21.1653 149.775 20.824 150.021 20.408L151.269 21.048C151.098 21.4427 150.831 21.8053 150.469 22.136C150.117 22.456 149.695 22.712 149.205 22.904C148.725 23.096 148.186 23.192 147.589 23.192ZM156.787 23.192C155.923 23.192 155.171 22.9787 154.531 22.552C153.891 22.1253 153.438 21.5493 153.171 20.824L154.355 20.248C154.6 20.76 154.936 21.1653 155.363 21.464C155.79 21.7627 156.264 21.912 156.787 21.912C157.256 21.912 157.646 21.8 157.955 21.576C158.264 21.352 158.419 21.0587 158.419 20.696C158.419 20.44 158.344 20.2373 158.195 20.088C158.056 19.928 157.886 19.8053 157.683 19.72C157.48 19.624 157.294 19.5547 157.123 19.512L155.827 19.144C155.048 18.92 154.478 18.6 154.115 18.184C153.763 17.768 153.587 17.2827 153.587 16.728C153.587 16.216 153.715 15.7733 153.971 15.4C154.238 15.016 154.595 14.7173 155.043 14.504C155.502 14.2907 156.014 14.184 156.579 14.184C157.336 14.184 158.014 14.376 158.611 14.76C159.219 15.144 159.651 15.6827 159.907 16.376L158.691 16.936C158.499 16.488 158.211 16.136 157.827 15.88C157.443 15.6133 157.011 15.48 156.531 15.48C156.094 15.48 155.747 15.592 155.491 15.816C155.235 16.0293 155.107 16.3013 155.107 16.632C155.107 16.8773 155.171 17.08 155.299 17.24C155.427 17.3893 155.582 17.5067 155.763 17.592C155.944 17.6667 156.12 17.7307 156.291 17.784L157.699 18.2C158.403 18.4027 158.947 18.7173 159.331 19.144C159.726 19.5707 159.923 20.0827 159.923 20.68C159.923 21.16 159.79 21.592 159.523 21.976C159.256 22.36 158.888 22.6587 158.419 22.872C157.95 23.0853 157.406 23.192 156.787 23.192ZM165.625 23.096C164.782 23.096 164.131 22.856 163.673 22.376C163.225 21.896 163.001 21.2187 163.001 20.344V15.8H161.433V14.376H161.753C162.137 14.376 162.441 14.2587 162.665 14.024C162.889 13.7893 163.001 13.48 163.001 13.096V12.392H164.489V14.376H166.425V15.8H164.489V20.296C164.489 20.584 164.531 20.8347 164.617 21.048C164.713 21.2613 164.867 21.432 165.081 21.56C165.294 21.6773 165.577 21.736 165.929 21.736C166.003 21.736 166.094 21.7307 166.201 21.72C166.318 21.7093 166.425 21.6987 166.521 21.688V23C166.382 23.032 166.227 23.0533 166.057 23.064C165.886 23.0853 165.742 23.096 165.625 23.096ZM175.73 23.192C174.887 23.192 174.135 22.9947 173.474 22.6C172.823 22.2053 172.311 21.6667 171.938 20.984C171.565 20.3013 171.378 19.5333 171.378 18.68C171.378 17.816 171.565 17.048 171.938 16.376C172.311 15.704 172.823 15.1707 173.474 14.776C174.135 14.3813 174.887 14.184 175.73 14.184C176.295 14.184 176.823 14.2853 177.314 14.488C177.805 14.6907 178.237 14.9627 178.61 15.304C178.983 15.6453 179.255 16.0453 179.426 16.504L178.098 17.144C177.895 16.696 177.586 16.3333 177.17 16.056C176.754 15.768 176.274 15.624 175.73 15.624C175.207 15.624 174.733 15.7573 174.306 16.024C173.89 16.2907 173.559 16.6533 173.314 17.112C173.069 17.5707 172.946 18.0987 172.946 18.696C172.946 19.272 173.069 19.7947 173.314 20.264C173.559 20.7227 173.89 21.0853 174.306 21.352C174.733 21.6187 175.207 21.752 175.73 21.752C176.274 21.752 176.754 21.6133 177.17 21.336C177.586 21.048 177.895 20.6693 178.098 20.2L179.426 20.872C179.255 21.32 178.983 21.72 178.61 22.072C178.237 22.4133 177.805 22.6853 177.314 22.888C176.823 23.0907 176.295 23.192 175.73 23.192ZM184.039 23.192C183.474 23.192 182.973 23.0907 182.535 22.888C182.109 22.6747 181.773 22.3867 181.527 22.024C181.282 21.6507 181.159 21.224 181.159 20.744C181.159 20.2853 181.255 19.8747 181.447 19.512C181.65 19.1387 181.959 18.824 182.375 18.568C182.802 18.312 183.335 18.1307 183.975 18.024L187.175 17.496V18.744L184.311 19.224C183.757 19.32 183.351 19.496 183.095 19.752C182.85 20.008 182.727 20.3227 182.727 20.696C182.727 21.048 182.866 21.3413 183.143 21.576C183.431 21.8107 183.789 21.928 184.215 21.928C184.759 21.928 185.229 21.816 185.623 21.592C186.029 21.3573 186.343 21.0427 186.567 20.648C186.802 20.2533 186.919 19.816 186.919 19.336V17.144C186.919 16.6747 186.743 16.296 186.391 16.008C186.05 15.7093 185.597 15.56 185.031 15.56C184.541 15.56 184.103 15.688 183.719 15.944C183.346 16.1893 183.069 16.52 182.887 16.936L181.591 16.264C181.751 15.8693 182.007 15.5173 182.359 15.208C182.711 14.888 183.122 14.6373 183.591 14.456C184.061 14.2747 184.551 14.184 185.063 14.184C185.725 14.184 186.306 14.312 186.807 14.568C187.309 14.8133 187.698 15.16 187.975 15.608C188.263 16.0453 188.407 16.5573 188.407 17.144V23H186.951V21.368L187.223 21.464C187.042 21.8053 186.797 22.104 186.487 22.36C186.178 22.616 185.815 22.8187 185.399 22.968C184.983 23.1173 184.53 23.192 184.039 23.192ZM190.965 23V14.376H192.421V16.056L192.181 15.912C192.394 15.368 192.735 14.9467 193.205 14.648C193.685 14.3387 194.245 14.184 194.885 14.184C195.503 14.184 196.053 14.3227 196.533 14.6C197.023 14.8773 197.407 15.2613 197.685 15.752C197.973 16.2427 198.117 16.7973 198.117 17.416V23H196.613V17.896C196.613 17.416 196.527 17.0107 196.357 16.68C196.186 16.3493 195.941 16.0933 195.621 15.912C195.311 15.72 194.954 15.624 194.549 15.624C194.143 15.624 193.781 15.72 193.461 15.912C193.151 16.0933 192.906 16.3547 192.725 16.696C192.543 17.0267 192.453 17.4267 192.453 17.896V23H190.965ZM204.416 23.192C203.605 23.192 202.874 22.9947 202.224 22.6C201.584 22.2053 201.077 21.6667 200.704 20.984C200.33 20.3013 200.144 19.5387 200.144 18.696C200.144 17.832 200.33 17.064 200.704 16.392C201.077 15.7093 201.584 15.1707 202.224 14.776C202.874 14.3813 203.605 14.184 204.416 14.184C205.13 14.184 205.765 14.3387 206.32 14.648C206.874 14.9467 207.312 15.352 207.632 15.864L207.392 16.232V10.888H208.896V23H207.44V21.16L207.632 21.416C207.333 21.9813 206.896 22.4187 206.32 22.728C205.754 23.0373 205.12 23.192 204.416 23.192ZM204.544 21.752C205.088 21.752 205.573 21.6187 206 21.352C206.426 21.0853 206.762 20.7227 207.008 20.264C207.264 19.7947 207.392 19.272 207.392 18.696C207.392 18.1093 207.264 17.5867 207.008 17.128C206.762 16.6587 206.426 16.2907 206 16.024C205.573 15.7573 205.088 15.624 204.544 15.624C204.01 15.624 203.525 15.7627 203.088 16.04C202.661 16.3067 202.325 16.6693 202.08 17.128C201.834 17.576 201.712 18.0987 201.712 18.696C201.712 19.272 201.834 19.7947 202.08 20.264C202.325 20.7227 202.661 21.0853 203.088 21.352C203.514 21.6187 204 21.752 204.544 21.752ZM211.449 23V14.376H212.937V23H211.449ZM211.449 13V11.08H212.937V13H211.449ZM219.416 23.192C218.605 23.192 217.874 22.9947 217.224 22.6C216.584 22.2053 216.077 21.6667 215.704 20.984C215.33 20.3013 215.144 19.5387 215.144 18.696C215.144 17.832 215.33 17.064 215.704 16.392C216.077 15.7093 216.584 15.1707 217.224 14.776C217.874 14.3813 218.605 14.184 219.416 14.184C220.13 14.184 220.765 14.3387 221.32 14.648C221.874 14.9467 222.312 15.352 222.632 15.864L222.392 16.232V10.888H223.896V23H222.44V21.16L222.632 21.416C222.333 21.9813 221.896 22.4187 221.32 22.728C220.754 23.0373 220.12 23.192 219.416 23.192ZM219.544 21.752C220.088 21.752 220.573 21.6187 221 21.352C221.426 21.0853 221.762 20.7227 222.008 20.264C222.264 19.7947 222.392 19.272 222.392 18.696C222.392 18.1093 222.264 17.5867 222.008 17.128C221.762 16.6587 221.426 16.2907 221 16.024C220.573 15.7573 220.088 15.624 219.544 15.624C219.01 15.624 218.525 15.7627 218.088 16.04C217.661 16.3067 217.325 16.6693 217.08 17.128C216.834 17.576 216.712 18.0987 216.712 18.696C216.712 19.272 216.834 19.7947 217.08 20.264C217.325 20.7227 217.661 21.0853 218.088 21.352C218.514 21.6187 219 21.752 219.544 21.752ZM228.977 23.192C228.412 23.192 227.91 23.0907 227.473 22.888C227.046 22.6747 226.71 22.3867 226.465 22.024C226.22 21.6507 226.097 21.224 226.097 20.744C226.097 20.2853 226.193 19.8747 226.385 19.512C226.588 19.1387 226.897 18.824 227.313 18.568C227.74 18.312 228.273 18.1307 228.913 18.024L232.113 17.496V18.744L229.249 19.224C228.694 19.32 228.289 19.496 228.033 19.752C227.788 20.008 227.665 20.3227 227.665 20.696C227.665 21.048 227.804 21.3413 228.081 21.576C228.369 21.8107 228.726 21.928 229.153 21.928C229.697 21.928 230.166 21.816 230.561 21.592C230.966 21.3573 231.281 21.0427 231.505 20.648C231.74 20.2533 231.857 19.816 231.857 19.336V17.144C231.857 16.6747 231.681 16.296 231.329 16.008C230.988 15.7093 230.534 15.56 229.969 15.56C229.478 15.56 229.041 15.688 228.657 15.944C228.284 16.1893 228.006 16.52 227.825 16.936L226.529 16.264C226.689 15.8693 226.945 15.5173 227.297 15.208C227.649 14.888 228.06 14.6373 228.529 14.456C228.998 14.2747 229.489 14.184 230.001 14.184C230.662 14.184 231.244 14.312 231.745 14.568C232.246 14.8133 232.636 15.16 232.913 15.608C233.201 16.0453 233.345 16.5573 233.345 17.144V23H231.889V21.368L232.161 21.464C231.98 21.8053 231.734 22.104 231.425 22.36C231.116 22.616 230.753 22.8187 230.337 22.968C229.921 23.1173 229.468 23.192 228.977 23.192ZM239.25 23.096C238.407 23.096 237.756 22.856 237.298 22.376C236.85 21.896 236.626 21.2187 236.626 20.344V15.8H235.058V14.376H235.378C235.762 14.376 236.066 14.2587 236.29 14.024C236.514 13.7893 236.626 13.48 236.626 13.096V12.392H238.114V14.376H240.05V15.8H238.114V20.296C238.114 20.584 238.156 20.8347 238.242 21.048C238.338 21.2613 238.492 21.432 238.706 21.56C238.919 21.6773 239.202 21.736 239.554 21.736C239.628 21.736 239.719 21.7307 239.826 21.72C239.943 21.7093 240.05 21.6987 240.146 21.688V23C240.007 23.032 239.852 23.0533 239.682 23.064C239.511 23.0853 239.367 23.096 239.25 23.096ZM246.073 23.192C245.241 23.192 244.5 22.9947 243.849 22.6C243.198 22.2053 242.686 21.6667 242.313 20.984C241.94 20.2907 241.753 19.5173 241.753 18.664C241.753 17.8 241.934 17.032 242.297 16.36C242.67 15.688 243.172 15.16 243.801 14.776C244.441 14.3813 245.156 14.184 245.945 14.184C246.585 14.184 247.15 14.3013 247.641 14.536C248.142 14.76 248.564 15.0693 248.905 15.464C249.257 15.848 249.524 16.2907 249.705 16.792C249.897 17.2827 249.993 17.7947 249.993 18.328C249.993 18.4453 249.982 18.5787 249.961 18.728C249.95 18.8667 249.934 19 249.913 19.128H242.841V17.848H249.049L248.345 18.424C248.441 17.8693 248.388 17.3733 248.185 16.936C247.982 16.4987 247.684 16.152 247.289 15.896C246.894 15.64 246.446 15.512 245.945 15.512C245.444 15.512 244.985 15.64 244.569 15.896C244.153 16.152 243.828 16.52 243.593 17C243.369 17.4693 243.278 18.0293 243.321 18.68C243.278 19.3093 243.374 19.864 243.609 20.344C243.854 20.8133 244.196 21.1813 244.633 21.448C245.081 21.704 245.566 21.832 246.089 21.832C246.665 21.832 247.15 21.6987 247.545 21.432C247.94 21.1653 248.26 20.824 248.505 20.408L249.753 21.048C249.582 21.4427 249.316 21.8053 248.953 22.136C248.601 22.456 248.18 22.712 247.689 22.904C247.209 23.096 246.67 23.192 246.073 23.192ZM255.271 23.192C254.407 23.192 253.655 22.9787 253.015 22.552C252.375 22.1253 251.922 21.5493 251.655 20.824L252.839 20.248C253.085 20.76 253.421 21.1653 253.847 21.464C254.274 21.7627 254.749 21.912 255.271 21.912C255.741 21.912 256.13 21.8 256.439 21.576C256.749 21.352 256.903 21.0587 256.903 20.696C256.903 20.44 256.829 20.2373 256.679 20.088C256.541 19.928 256.37 19.8053 256.167 19.72C255.965 19.624 255.778 19.5547 255.607 19.512L254.311 19.144C253.533 18.92 252.962 18.6 252.599 18.184C252.247 17.768 252.071 17.2827 252.071 16.728C252.071 16.216 252.199 15.7733 252.455 15.4C252.722 15.016 253.079 14.7173 253.527 14.504C253.986 14.2907 254.498 14.184 255.063 14.184C255.821 14.184 256.498 14.376 257.095 14.76C257.703 15.144 258.135 15.6827 258.391 16.376L257.175 16.936C256.983 16.488 256.695 16.136 256.311 15.88C255.927 15.6133 255.495 15.48 255.015 15.48C254.578 15.48 254.231 15.592 253.975 15.816C253.719 16.0293 253.591 16.3013 253.591 16.632C253.591 16.8773 253.655 17.08 253.783 17.24C253.911 17.3893 254.066 17.5067 254.247 17.592C254.429 17.6667 254.605 17.7307 254.775 17.784L256.183 18.2C256.887 18.4027 257.431 18.7173 257.815 19.144C258.21 19.5707 258.407 20.0827 258.407 20.68C258.407 21.16 258.274 21.592 258.007 21.976C257.741 22.36 257.373 22.6587 256.903 22.872C256.434 23.0853 255.89 23.192 255.271 23.192Z" fill="#413659"/>
</svg>